<?xml version="1.0" standalone="no"?>
<!DOCTYPE svg PUBLIC "-//W3C//DTD SVG 20010904//EN"
 "http://www.w3.org/TR/2001/REC-SVG-20010904/DTD/svg10.dtd">
<svg version="1.0" xmlns="http://www.w3.org/2000/svg"
 width="700.000000pt" height="700.000000pt" viewBox="0 0 700.000000 700.000000"
 preserveAspectRatio="xMidYMid meet">
<metadata>
Created by potrace 1.11, written by Peter Selinger 2001-2013
</metadata>
<g transform="translate(0.000000,700.000000) scale(0.100000,-0.100000)"
fill="#000000" stroke="none">
<path d="M2708 6955 c-2 -2 -32 -6 -68 -9 -81 -8 -127 -14 -149 -20 -9 -3 -32
-8 -51 -11 -305 -51 -746 -281 -1045 -547 -16 -14 -41 -36 -55 -48 -76 -65
-229 -223 -322 -330 -303 -352 -555 -760 -763 -1235 -69 -158 -151 -402 -194
-580 -51 -204 -71 -430 -50 -545 85 -460 685 -1314 1523 -2170 188 -191 408
-402 566 -540 39 -35 274 -234 285 -242 6 -4 30 -24 55 -44 211 -172 533 -386
700 -469 293 -143 444 -154 757 -54 343 110 887 408 1338 734 140 101 160 116
175 128 9 7 54 41 100 77 158 120 385 309 488 405 24 22 58 53 75 69 511 468
838 912 911 1235 17 73 15 351 -2 461 -6 36 -13 81 -16 100 -6 38 -43 215 -51
240 -2 8 -9 34 -15 58 -47 194 -215 587 -351 826 -79 137 -254 405 -321 491
-64 83 -213 271 -217 275 -3 3 -33 36 -66 75 -154 179 -432 455 -596 590 -13
11 -48 40 -77 63 -28 24 -53 42 -53 40 -1 -1 -3 -644 -4 -1428 -2 -784 -5
-1454 -9 -1490 -6 -73 -16 -153 -22 -184 -2 -11 -6 -38 -9 -61 -41 -286 -193
-632 -370 -840 -158 -186 -392 -357 -598 -436 -29 -11 -61 -24 -72 -29 -20 -9
-136 -49 -165 -56 -8 -2 -33 -8 -55 -14 -207 -53 -399 -74 -670 -74 -148 0
-360 10 -374 18 -3 2 -28 6 -56 10 -138 17 -460 101 -489 127 -6 5 -16 9 -23
9 -32 0 -332 161 -379 203 -7 7 -40 32 -73 57 -33 25 -60 50 -61 55 0 6 8 24
18 40 10 17 36 62 57 100 39 72 177 324 235 430 18 33 55 101 83 150 27 50 59
108 71 130 13 22 42 75 65 117 l42 77 71 -55 c251 -194 539 -282 812 -247 194
24 353 112 458 253 42 56 94 169 114 250 18 72 19 143 19 1880 l0 1804 -80 28
c-163 56 -403 111 -580 134 -16 2 -52 6 -80 10 -48 6 -382 14 -387 9z"/>
</g>
</svg>
